<?xml version="1.0" standalone="no"?>
<!DOCTYPE svg PUBLIC "-//W3C//DTD SVG 20010904//EN"
 "http://www.w3.org/TR/2001/REC-SVG-20010904/DTD/svg10.dtd">
<svg version="1.0" xmlns="http://www.w3.org/2000/svg"
 width="1024.000000pt" height="1024.000000pt" viewBox="0 0 1024.000000 1024.000000"
 preserveAspectRatio="xMidYMid meet">

<g transform="translate(0.000000,1024.000000) scale(0.100000,-0.100000)"
fill="#000000" stroke="none">
<path d="M6011 8099 c-232 -49 -401 -156 -543 -342 -106 -140 -179 -323 -214
-532 -27 -156 -27 -639 -1 -764 9 -47 19 -86 21 -88 1 -2 6 52 9 119 7 134 36
302 67 385 55 148 121 247 249 373 54 54 90 102 125 165 93 168 140 225 236
282 129 76 348 74 493 -5 60 -32 96 -75 119 -141 36 -108 3 -225 -131 -461
-85 -149 -89 -179 -40 -275 36 -71 105 -174 157 -233 l37 -42 85 44 c165 86
308 120 505 118 239 -2 729 -72 1105 -159 161 -38 287 -37 429 0 121 33 195
65 199 88 4 23 -46 79 -85 95 -43 19 -113 18 -258 -3 -100 -14 -136 -15 -220
-5 -207 23 -431 90 -620 184 -128 64 -167 89 -238 155 -94 86 -140 150 -362
493 -162 251 -284 374 -460 462 -193 97 -454 131 -664 87z"/>
<path d="M4320 5524 c-188 -11 -552 -63 -795 -114 -270 -56 -515 -124 -515
-143 0 -14 151 -228 192 -273 21 -23 38 -46 38 -51 0 -6 -18 -9 -42 -7 -24 2
-117 8 -208 14 -91 6 -289 22 -440 35 -532 48 -616 55 -770 64 -327 20 -447
24 -454 12 -20 -32 204 -270 414 -442 82 -67 259 -202 392 -301 318 -236 358
-269 517 -423 144 -140 216 -228 331 -400 201 -301 431 -560 686 -773 89 -75
271 -203 335 -236 56 -30 57 -31 63 -83 7 -64 -8 -217 -30 -293 -30 -103 -46
-124 -121 -157 -94 -42 -261 -96 -431 -138 -207 -52 -194 -44 -190 -112 l3
-58 315 -8 c321 -8 3340 -1 3348 8 3 3 7 29 10 59 l4 53 -73 17 c-41 8 -144
30 -229 47 -163 32 -199 41 -370 91 -166 48 -203 69 -244 136 -18 31 -45 86
-60 122 -24 63 -66 219 -66 250 0 10 24 24 68 39 37 13 102 40 144 62 106 52
352 220 479 326 122 103 355 334 364 362 3 11 15 23 26 26 10 4 24 16 30 28
l12 22 -24 -21 c-13 -11 -46 -29 -74 -40 -38 -14 -45 -19 -28 -22 22 -3 22 -4
7 -28 -12 -18 -20 -22 -29 -14 -9 8 -14 6 -19 -6 -4 -10 -13 -14 -27 -11 -16
4 -19 2 -14 -14 6 -17 3 -19 -22 -13 -45 11 -48 10 -45 -10 3 -15 -1 -18 -18
-13 -16 4 -20 2 -16 -8 3 -8 1 -17 -5 -21 -6 -3 -8 -12 -5 -20 3 -8 2 -14 -3
-14 -5 0 -11 14 -15 30 -5 28 -8 30 -38 25 -40 -7 -45 -12 -30 -27 20 -20 14
-30 -10 -17 -17 9 -24 9 -32 -3 -14 -18 -46 -31 -46 -18 0 5 5 12 10 15 6 4 8
11 4 16 -3 6 -13 2 -22 -8 -23 -24 -52 -28 -52 -7 0 13 -3 14 -15 4 -8 -6 -18
-9 -23 -6 -6 3 -15 -1 -22 -9 -10 -12 -10 -15 3 -15 26 0 38 -24 23 -46 -14
-18 -15 -18 -25 9 -12 31 -36 35 -63 10 -17 -15 -18 -15 -18 0 0 25 -13 21
-32 -10 -12 -20 -18 -23 -18 -11 0 12 -8 16 -27 15 -25 -2 -28 1 -26 26 1 15
-2 27 -8 27 -5 0 -9 -5 -9 -11 0 -18 -28 -41 -36 -28 -3 6 -18 9 -33 7 -21 -3
-27 0 -27 14 0 10 5 17 11 15 58 -22 72 -15 36 17 -15 14 -24 15 -40 7 -14 -8
-22 -8 -27 0 -4 8 -10 6 -17 -7 -7 -13 -7 -19 1 -22 7 -2 12 -12 12 -23 0 -10
5 -19 10 -19 19 0 10 -18 -12 -23 -26 -7 -36 -1 -21 14 12 12 6 49 -8 49 -5 0
-6 7 -2 15 3 9 1 15 -5 13 -6 -2 -17 6 -25 17 -15 19 -16 19 -24 -13 l-8 -33
-24 22 c-22 21 -25 21 -36 6 -7 -9 -18 -17 -26 -17 -12 0 -12 2 0 9 12 8 12
12 2 25 -18 21 -32 20 -24 -1 3 -10 3 -15 -2 -11 -4 4 -16 3 -26 -3 -15 -7
-19 -6 -19 6 0 8 -4 15 -10 15 -5 0 -10 -5 -10 -10 0 -6 -8 -5 -20 2 -11 7
-20 23 -20 35 0 13 -5 23 -11 23 -6 0 -9 6 -6 13 2 6 14 11 25 9 12 -2 22 1
22 6 0 18 -64 21 -77 4 -7 -9 -13 -11 -13 -5 0 6 -6 13 -14 16 -9 4 -12 0 -9
-13 4 -14 0 -17 -21 -13 -32 6 -33 16 -4 35 22 15 22 15 -12 14 -19 0 -38 -5
-42 -11 -4 -5 -8 0 -8 13 0 23 -14 30 -26 11 -3 -6 -1 -14 5 -18 6 -4 10 -18
9 -32 -3 -20 -10 -25 -43 -30 -22 -4 -45 -2 -51 2 -6 5 -19 6 -28 3 -14 -5
-16 -1 -13 32 2 21 9 40 16 42 6 2 11 11 11 20 -1 15 -2 15 -15 -2 -7 -10 -18
-15 -24 -11 -7 4 -11 -4 -11 -19 0 -14 -4 -27 -9 -30 -5 -3 -7 -16 -4 -29 l4
-22 -13 23 c-11 17 -16 20 -26 10 -6 -6 -19 -13 -28 -14 -14 -2 -14 -1 0 15 9
10 16 34 16 53 0 20 6 39 13 41 7 3 5 6 -5 6 -12 1 -18 -6 -18 -19 0 -14 -5
-18 -17 -14 -15 5 -16 4 -3 -5 13 -9 13 -12 -1 -27 -16 -15 -17 -15 -24 5 -3
11 -3 26 1 33 6 9 3 9 -9 0 -10 -9 -16 -27 -15 -48 1 -35 -26 -69 -46 -56 -5
3 1 9 13 14 23 8 20 28 -5 28 -16 0 -19 16 -3 25 6 4 8 13 5 20 -2 7 1 18 7
24 6 6 7 14 2 18 -4 5 -10 2 -12 -4 -3 -7 -9 -13 -15 -13 -6 0 -8 6 -5 14 10
26 -30 26 -42 -1 -11 -25 -31 -23 -31 3 0 8 -5 12 -11 9 -6 -4 -8 -13 -5 -20
3 -10 -4 -13 -25 -13 -16 1 -29 5 -29 10 0 4 -7 8 -16 8 -11 0 -14 -5 -9 -17
5 -14 3 -15 -6 -6 -6 6 -18 9 -26 6 -11 -4 -14 0 -11 18 2 15 -2 23 -10 21
-18 -3 -27 28 -11 40 11 7 11 11 2 15 -15 6 -18 63 -3 63 6 0 10 4 10 9 0 11
-53 1 -63 -13 -4 -6 -5 -21 -2 -33 7 -28 -10 -30 -27 -3 -7 11 -16 20 -20 20
-5 0 -8 -9 -8 -20 0 -23 -4 -24 -31 -10 -20 11 -27 40 -9 40 6 0 10 8 9 18 0
10 -3 12 -6 5 -3 -9 -10 -10 -23 -3 -13 7 -22 5 -33 -8 -9 -9 -16 -20 -16 -24
-2 -17 -17 -10 -28 13 -6 12 -9 36 -6 52 5 23 3 29 -8 25 -18 -6 -24 -45 -10
-62 8 -10 6 -18 -10 -32 -20 -18 -21 -18 -35 1 -14 18 -16 16 -18 -14 -1 -8
-7 -16 -14 -19 -20 -6 -15 48 6 55 22 9 47 33 33 33 -5 0 -21 -4 -35 -10 -17
-6 -26 -6 -26 0 0 5 -11 9 -25 8 -14 -1 -24 -7 -22 -13 2 -5 -2 -23 -9 -40
l-13 -30 -1 26 c0 18 -7 28 -21 32 -15 4 -19 2 -15 -8 3 -8 -1 -21 -9 -29 -8
-8 -12 -23 -9 -33 4 -13 0 -11 -15 7 -19 24 -20 24 -34 6 -12 -17 -14 -17 -20
-2 -4 9 -2 16 3 16 6 0 10 10 10 23 0 16 -3 18 -9 9 -7 -11 -9 -11 -14 2 -4 9
-13 13 -22 10 -10 -4 -15 0 -15 11 0 12 5 15 22 9 21 -6 21 -5 9 10 -13 15
-13 19 0 27 10 8 8 9 -9 4 -13 -4 -29 -1 -37 5 -11 9 -15 9 -15 1 0 -6 -7 -11
-16 -11 -10 0 -14 -6 -10 -15 3 -8 1 -15 -5 -15 -6 0 -7 -5 -4 -10 5 -8 11 -7
21 1 11 9 14 6 14 -17 0 -19 -3 -25 -8 -16 -13 20 -45 3 -39 -20 5 -19 5 -19
-14 -2 -18 16 -19 16 -20 -2 0 -17 -2 -16 -11 4 -6 12 -15 22 -20 22 -4 0 -8
-10 -8 -22 0 -19 -2 -20 -11 -8 -8 11 -12 12 -16 2 -2 -6 -9 -9 -14 -6 -6 3
-2 12 8 19 14 11 16 16 6 26 -7 7 -13 21 -13 30 0 18 -36 33 -46 18 -7 -12
-24 -11 -24 1 0 6 6 10 14 10 15 0 42 28 34 36 -3 2 -17 0 -32 -5 -32 -13 -35
3 -5 35 20 21 20 21 0 27 -11 3 -20 2 -19 -2 2 -20 -4 -22 -16 -5 -14 18 -15
18 -22 -11 l-8 -30 -7 35 c-4 20 -3 43 3 55 10 18 10 19 -5 6 -10 -8 -17 -28
-17 -48 0 -22 -4 -33 -12 -31 -12 4 -16 73 -5 85 4 3 7 10 7 15 0 9 -36 -9
-58 -30 -13 -11 -12 -14 6 -19 12 -3 18 -11 15 -19 -2 -7 -1 -19 3 -26 14 -22
13 -40 -1 -54 -18 -18 -31 -18 -16 0 10 12 8 19 -10 37 -17 17 -19 23 -8 30
12 7 11 9 -1 9 -8 0 -21 -9 -28 -20 -10 -17 -10 -20 3 -20 9 0 15 -9 15 -22 0
-20 -1 -20 -18 -5 -10 10 -22 14 -25 10 -4 -3 -7 1 -7 10 0 9 -4 17 -10 17 -5
0 -10 -4 -10 -10 0 -5 -5 -10 -10 -10 -6 0 -9 5 -8 12 2 6 -5 14 -14 16 -12 2
-18 -3 -18 -13 0 -9 -5 -13 -11 -9 -8 4 -8 9 0 17 13 13 15 40 2 33 -5 -4 -22
-1 -38 6 -15 6 -31 11 -35 10 -5 -1 -8 2 -8 8 0 5 5 10 10 10 15 0 12 27 -4
33 -8 3 -20 -1 -27 -9 -16 -20 -32 -13 -40 17 -6 22 -7 21 -8 -8 -1 -32 -16
-52 -29 -38 -4 4 -1 10 6 12 6 3 12 11 12 18 0 17 -28 27 -32 13 -6 -17 -38
-2 -38 17 0 9 10 19 22 24 l22 8 -22 5 c-12 4 -22 2 -22 -3 0 -14 -28 -11 -33
4 -4 9 -8 8 -16 -3 -8 -11 -7 -16 5 -18 9 -2 13 -10 10 -17 -3 -8 0 -12 7 -9
7 2 13 -4 14 -16 1 -14 -3 -20 -15 -18 -9 2 -17 -3 -18 -9 -1 -7 -2 -18 -3
-24 0 -5 -6 -7 -12 -3 -7 4 -9 21 -6 40 3 19 2 34 -4 34 -5 0 -9 -11 -9 -25 0
-14 -5 -25 -11 -25 -7 0 -9 11 -5 30 3 17 1 30 -4 30 -6 0 -10 -6 -10 -12 0
-7 -7 -4 -16 7 -15 19 -16 19 -29 2 -16 -22 -29 -6 -20 23 7 21 -10 29 -18 8
-3 -9 -11 -4 -25 12 l-21 25 -1 -42 c0 -24 -4 -43 -10 -43 -5 0 -10 7 -10 15
0 9 -7 15 -17 13 -11 -2 -19 5 -21 17 -4 17 -2 18 11 6 18 -14 37 -7 37 15 0
9 -10 14 -28 14 -15 0 -33 5 -40 12 -9 9 -12 8 -12 -5 0 -21 -19 -22 -27 -2
-3 9 2 22 13 30 19 14 19 14 0 15 -15 0 -16 3 -6 15 17 20 12 24 -41 30 -24 3
-49 12 -55 20 -7 9 -19 13 -28 9 -11 -4 -16 0 -16 14 0 12 -5 24 -11 28 -6 3
-9 19 -5 34 3 19 0 32 -11 42 -12 9 -15 9 -9 1 5 -9 1 -13 -13 -13 -11 0 -23
5 -27 12 -4 6 -3 8 3 5 5 -3 17 3 26 14 9 10 12 19 7 19 -5 0 -7 8 -3 18 6 16
5 16 -14 0 -27 -25 -30 -23 -25 14 4 26 2 30 -11 25 -9 -3 -19 -2 -23 4 -3 6
3 13 15 16 16 4 21 12 19 35 -1 16 -6 32 -11 35 -4 2 -5 14 -2 25 4 12 0 27
-11 39 -9 10 -14 22 -11 26 4 3 7 1 7 -7 0 -10 3 -10 14 -1 15 13 18 51 4 51
-4 0 -8 -4 -8 -10 0 -5 -4 -10 -10 -10 -5 0 -10 8 -10 19 0 21 46 36 54 17 2
-6 5 2 5 18 1 23 -2 26 -12 17 -11 -8 -18 -6 -31 8 -10 11 -13 22 -7 25 5 3 9
37 8 75 -1 38 -5 67 -9 65 -8 -5 -12 13 -8 31 2 6 2 20 1 33 0 13 2 21 7 19 4
-3 8 29 9 70 1 42 6 80 12 86 5 5 142 16 303 23 462 22 837 58 815 80 -2 3
-53 19 -113 35 -59 17 -112 33 -116 36 -13 7 6 27 127 128 288 241 473 342
740 402 90 20 146 26 310 30 215 5 318 -7 530 -62 129 -33 145 -36 145 -27 0
14 -169 79 -276 106 -201 51 -385 68 -779 71 -198 1 -389 1 -425 -1z m-1330
-1450 c0 -8 -4 -14 -10 -14 -5 0 -10 4 -10 9 0 5 -3 18 -7 28 -6 16 -5 16 10
4 9 -7 17 -20 17 -27z m60 6 c0 -5 -4 -10 -10 -10 -5 0 -10 5 -10 10 0 6 5 10
10 10 6 0 10 -4 10 -10z m-53 -92 c-3 -8 -6 -5 -6 6 -1 11 2 17 5 13 3 -3 4
-12 1 -19z m77 -113 c3 -9 0 -15 -9 -15 -8 0 -15 7 -15 15 0 8 4 15 9 15 5 0
11 -7 15 -15z m29 -59 c-7 -29 -10 -31 -26 -17 -24 19 -21 31 6 27 12 -1 21
-6 20 -10z m404 -252 c-3 -3 -12 -4 -19 -1 -8 3 -5 6 6 6 11 1 17 -2 13 -5z
m175 -25 l5 -31 -18 23 c-17 23 -17 39 0 39 5 0 11 -14 13 -31z m78 11 c-8 -5
-17 -7 -19 -4 -3 3 1 9 9 14 8 5 17 7 19 4 3 -3 -1 -9 -9 -14z m51 -20 c6 0 5
-9 -1 -21 -11 -20 -12 -20 -30 -2 -20 20 -16 37 7 29 8 -3 19 -6 24 -6z m339
-90 c0 -5 -7 -10 -15 -10 -8 0 -15 5 -15 10 0 6 7 10 15 10 8 0 15 -4 15 -10z
m-198 -32 c-7 -7 -12 -8 -12 -2 0 6 3 14 7 17 3 4 9 5 12 2 2 -3 -1 -11 -7
-17z m278 -15 c-1 -18 -18 -35 -24 -24 -4 6 -4 16 -1 21 7 12 25 13 25 3z
m220 -58 c0 -8 -4 -15 -10 -15 -5 0 -10 7 -10 15 0 8 5 15 10 15 6 0 10 -7 10
-15z m140 -9 c0 -7 -8 -20 -17 -27 -15 -12 -16 -12 -10 4 4 10 7 23 7 28 0 5
5 9 10 9 6 0 10 -6 10 -14z m240 -11 c0 -1 -6 -8 -14 -14 -11 -9 -15 -7 -19 8
-3 14 0 17 14 14 11 -3 19 -7 19 -8z m-390 -20 c0 -8 -2 -15 -4 -15 -2 0 -6 7
-10 15 -3 8 -1 15 4 15 6 0 10 -7 10 -15z m230 -6 c0 -5 -7 -9 -15 -9 -15 0
-20 12 -9 23 8 8 24 -1 24 -14z m230 11 c0 -5 -4 -10 -10 -10 -5 0 -10 5 -10
10 0 6 5 10 10 10 6 0 10 -4 10 -10z m-140 -15 c0 -8 -4 -15 -8 -15 -5 0 -9 7
-9 15 0 8 4 15 9 15 4 0 8 -7 8 -15z m114 -1 c3 -8 10 -12 16 -9 5 3 10 -1 10
-9 0 -9 -4 -16 -10 -16 -5 0 -10 5 -10 10 0 6 -7 10 -15 10 -8 0 -15 7 -15 15
0 20 16 19 24 -1z m-164 -24 c0 -5 -5 -10 -11 -10 -5 0 -7 5 -4 10 3 6 8 10
11 10 2 0 4 -4 4 -10z m542 -55 c-6 -34 -12 -32 -12 6 0 16 4 28 9 25 4 -3 6
-17 3 -31z m-259 -5 c-3 -11 -7 -20 -9 -20 -2 0 -4 9 -4 20 0 11 4 20 9 20 5
0 7 -9 4 -20z m211 -9 c8 -12 -3 -41 -15 -41 -5 0 -9 11 -9 25 0 25 14 34 24
16z m-97 -15 c-3 -8 -2 -16 3 -18 6 -2 5 -9 0 -18 -8 -13 -10 -12 -10 3 0 9
-8 17 -17 17 -15 0 -14 2 3 15 24 18 27 18 21 1z m53 -54 c0 -15 -2 -15 -10
-2 -13 20 -13 33 0 25 6 -3 10 -14 10 -23z m623 -8 c10 -10 -17 -44 -35 -44
-9 0 -19 -8 -21 -17 -3 -12 -5 -8 -6 9 -1 21 3 25 19 21 18 -5 25 5 21 30 -1
9 13 9 22 1z m-79 -39 c-4 -8 -11 -15 -16 -15 -6 0 -5 6 2 15 7 8 14 15 16 15
2 0 1 -7 -2 -15z m1103 -7 c-3 -8 -6 -5 -6 6 -1 11 2 17 5 13 3 -3 4 -12 1
-19z m-107 -8 c0 -5 -4 -10 -10 -10 -5 0 -10 5 -10 10 0 6 5 10 10 10 6 0 10
-4 10 -10z m-66 -55 c-4 -8 -8 -15 -10 -15 -2 0 -4 7 -4 15 0 8 4 15 10 15 5
0 7 -7 4 -15z m-674 -15 c0 -5 -4 -10 -10 -10 -5 0 -10 5 -10 10 0 6 5 10 10
10 6 0 10 -4 10 -10z m130 0 c0 -5 -2 -10 -4 -10 -3 0 -8 5 -11 10 -3 6 -1 10
4 10 6 0 11 -4 11 -10z m120 -35 c0 -8 -2 -15 -4 -15 -2 0 -6 7 -10 15 -3 8
-1 15 4 15 6 0 10 -7 10 -15z m35 -25 c3 -5 1 -10 -4 -10 -6 0 -11 5 -11 10 0
6 2 10 4 10 3 0 8 -4 11 -10z m-475 -519 c0 -40 -55 -250 -82 -314 -37 -89
-51 -102 -176 -162 -64 -31 -129 -59 -143 -62 -24 -5 -28 -1 -45 43 -9 27 -21
54 -25 59 -21 28 -82 396 -68 409 2 2 81 9 174 16 94 6 209 17 255 24 47 8 91
14 98 15 7 1 12 -11 12 -28z m-1205 0 c61 -5 191 -13 289 -16 l179 -7 -6 -87
c-12 -175 -105 -424 -172 -463 -28 -16 -38 -16 -143 -2 -183 24 -266 65 -304
150 -19 45 -72 266 -83 349 -3 28 -8 61 -11 74 l-5 24 73 -6 c40 -4 123 -11
183 -16z"/>
<path d="M3185 4291 c-3 -5 -1 -12 5 -16 5 -3 10 1 10 9 0 18 -6 21 -15 7z"/>
<path d="M3116 4262 c-2 -4 -1 -14 5 -22 7 -12 9 -10 9 8 0 23 -5 28 -14 14z"/>
<path d="M3115 4200 c3 -5 8 -10 11 -10 2 0 4 5 4 10 0 6 -5 10 -11 10 -5 0
-7 -4 -4 -10z"/>
<path d="M3082 4160 c0 -14 2 -19 5 -12 2 6 2 18 0 25 -3 6 -5 1 -5 -13z"/>
<path d="M3170 4149 c0 -5 5 -7 10 -4 6 3 10 8 10 11 0 2 -4 4 -10 4 -5 0 -10
-5 -10 -11z"/>
<path d="M3255 4110 c-4 -6 -3 -16 3 -22 6 -6 12 -6 17 2 4 6 3 16 -3 22 -6 6
-12 6 -17 -2z"/>
<path d="M3116 4084 c-4 -9 -2 -22 4 -28 7 -7 10 -6 10 2 0 7 8 12 18 13 13 0
14 2 2 6 -8 3 -18 10 -21 15 -3 5 -9 2 -13 -8z"/>
<path d="M3088 4043 c7 -3 16 -2 19 1 4 3 -2 6 -13 5 -11 0 -14 -3 -6 -6z"/>
<path d="M3200 4029 c0 -5 5 -7 10 -4 6 3 10 8 10 11 0 2 -4 4 -10 4 -5 0 -10
-5 -10 -11z"/>
<path d="M3240 4020 c0 -11 5 -20 10 -20 6 0 10 9 10 20 0 11 -4 20 -10 20 -5
0 -10 -9 -10 -20z"/>
<path d="M3090 4015 c-10 -12 -10 -15 4 -15 9 0 16 7 16 15 0 8 -2 15 -4 15
-2 0 -9 -7 -16 -15z"/>
<path d="M3180 3900 c0 -5 5 -10 10 -10 6 0 10 5 10 10 0 6 -4 10 -10 10 -5 0
-10 -4 -10 -10z"/>
<path d="M3225 3900 c-3 -5 -1 -10 4 -10 6 0 11 5 11 10 0 6 -2 10 -4 10 -3 0
-8 -4 -11 -10z"/>
<path d="M3890 3670 c0 -5 5 -10 10 -10 6 0 10 5 10 10 0 6 -4 10 -10 10 -5 0
-10 -4 -10 -10z"/>
<path d="M3700 3660 c0 -5 5 -10 11 -10 5 0 7 5 4 10 -3 6 -8 10 -11 10 -2 0
-4 -4 -4 -10z"/>
<path d="M3546 3652 c-3 -6 -1 -14 5 -17 15 -10 25 3 12 16 -7 7 -13 7 -17 1z"/>
<path d="M3930 3584 c0 -8 5 -12 10 -9 6 4 8 11 5 16 -9 14 -15 11 -15 -7z"/>
<path d="M4630 3500 c0 -5 9 -10 20 -10 11 0 20 5 20 10 0 6 -9 10 -20 10 -11
0 -20 -4 -20 -10z"/>
<path d="M4777 3504 c-8 -8 1 -24 14 -24 5 0 9 7 9 15 0 15 -12 20 -23 9z"/>
<path d="M4636 3473 c-12 -12 -6 -33 9 -33 8 0 15 6 15 14 0 17 -14 28 -24 19z"/>
<path d="M5330 3460 c0 -5 5 -10 10 -10 6 0 10 5 10 10 0 6 -4 10 -10 10 -5 0
-10 -4 -10 -10z"/>
<path d="M4481 3444 c0 -11 3 -14 6 -6 3 7 2 16 -1 19 -3 4 -6 -2 -5 -13z"/>
<path d="M4330 3440 c0 -5 7 -10 15 -10 8 0 15 5 15 10 0 6 -7 10 -15 10 -8 0
-15 -4 -15 -10z"/>
<path d="M4680 3442 c0 -7 33 -31 43 -32 20 0 0 34 -20 35 -13 1 -23 0 -23 -3z"/>
<path d="M4862 3430 c-7 -11 -8 -20 -3 -20 9 0 24 30 18 36 -1 2 -8 -6 -15
-16z"/>
<path d="M4825 3427 c-4 -10 -5 -21 -1 -24 10 -10 18 4 13 24 -4 17 -4 17 -12
0z"/>
<path d="M4946 3431 c-4 -7 -5 -15 -2 -18 9 -9 19 4 14 18 -4 11 -6 11 -12 0z"/>
<path d="M4980 3436 c0 -2 7 -6 15 -10 8 -3 15 -1 15 4 0 6 -7 10 -15 10 -8 0
-15 -2 -15 -4z"/>
<path d="M4280 3386 c0 -9 5 -16 10 -16 6 0 10 4 10 9 0 6 -4 13 -10 16 -5 3
-10 -1 -10 -9z"/>
<path d="M4320 3376 c0 -9 7 -16 16 -16 9 0 14 5 12 12 -6 18 -28 21 -28 4z"/>
<path d="M5325 3360 c-3 -5 -1 -10 4 -10 6 0 11 5 11 10 0 6 -2 10 -4 10 -3 0
-8 -4 -11 -10z"/>
<path d="M5067 3325 c-8 -19 13 -31 24 -14 13 20 11 29 -5 29 -8 0 -16 -7 -19
-15z"/>
<path d="M5135 3320 c3 -5 8 -10 11 -10 2 0 4 5 4 10 0 6 -5 10 -11 10 -5 0
-7 -4 -4 -10z"/>
<path d="M5488 3312 c-10 -2 -18 -8 -18 -13 0 -13 27 -11 35 2 9 13 4 16 -17
11z"/>
<path d="M5235 3298 c-18 -11 -16 -13 20 -19 46 -8 48 -7 39 15 -7 19 -31 20
-59 4z"/>
<path d="M5406 3301 c-4 -7 -5 -15 -2 -18 9 -9 19 4 14 18 -4 11 -6 11 -12 0z"/>
<path d="M5068 3273 c7 -3 16 -2 19 1 4 3 -2 6 -13 5 -11 0 -14 -3 -6 -6z"/>
<path d="M5135 3250 c-3 -5 1 -10 9 -10 9 0 16 5 16 10 0 6 -4 10 -9 10 -6 0
-13 -4 -16 -10z"/>
<path d="M5575 3251 c-17 -7 -16 -9 9 -15 31 -8 42 -3 31 13 -7 12 -12 13 -40
2z"/>
<path d="M5648 3243 c6 -2 18 -2 25 0 6 3 1 5 -13 5 -14 0 -19 -2 -12 -5z"/>
<path d="M5990 3199 c0 -11 4 -18 10 -14 5 3 7 12 3 20 -7 21 -13 19 -13 -6z"/>
<path d="M5900 3195 c0 -8 7 -15 15 -15 8 0 15 7 15 15 0 8 -7 15 -15 15 -8 0
-15 -7 -15 -15z"/>
<path d="M5570 3170 c0 -5 5 -10 11 -10 5 0 7 5 4 10 -3 6 -8 10 -11 10 -2 0
-4 -4 -4 -10z"/>
<path d="M5540 3140 c0 -5 5 -10 10 -10 6 0 10 5 10 10 0 6 -4 10 -10 10 -5 0
-10 -4 -10 -10z"/>
<path d="M5860 3099 c-10 -18 -9 -20 7 -17 10 2 19 11 21 21 5 24 -15 21 -28
-4z"/>
<path d="M6400 3104 c0 -8 5 -12 10 -9 6 3 10 10 10 16 0 5 -4 9 -10 9 -5 0
-10 -7 -10 -16z"/>
<path d="M6219 3109 c-7 -47 -6 -59 7 -59 11 0 13 7 8 28 -6 26 -13 40 -15 31z"/>
<path d="M6500 3095 c0 -8 5 -15 10 -15 6 0 10 7 10 15 0 8 -4 15 -10 15 -5 0
-10 -7 -10 -15z"/>
<path d="M6350 3090 c0 -5 5 -10 10 -10 6 0 10 5 10 10 0 6 -4 10 -10 10 -5 0
-10 -4 -10 -10z"/>
<path d="M6000 3066 c0 -9 5 -16 10 -16 6 0 10 4 10 9 0 6 -4 13 -10 16 -5 3
-10 -1 -10 -9z"/>
<path d="M6331 3046 c-8 -10 -9 -16 -1 -21 12 -7 42 19 33 29 -10 10 -20 7
-32 -8z"/>
<path d="M6386 3052 c-2 -4 -1 -14 5 -22 7 -12 9 -10 9 8 0 23 -5 28 -14 14z"/>
</g>
</svg>
